<?xml version="1.0" encoding="utf-8"?>
<!-- Generator: Adobe Illustrator 17.0.0, SVG Export Plug-In . SVG Version: 6.00 Build 0)  -->
<!DOCTYPE svg PUBLIC "-//W3C//DTD SVG 1.1//EN" "http://www.w3.org/Graphics/SVG/1.1/DTD/svg11.dtd">
<svg version="1.1" id="Layer_1" xmlns="http://www.w3.org/2000/svg" xmlns:xlink="http://www.w3.org/1999/xlink" x="0px" y="0px"
	 width="102.759px" height="118.734px" viewBox="0 0 102.759 118.734" enable-background="new 0 0 102.759 118.734"
	 xml:space="preserve">
<g>
	<defs>
		<rect id="SVGID_1_" y="0" width="102.759" height="118.734"/>
	</defs>
	<clipPath id="SVGID_2_">
		<use xlink:href="#SVGID_1_"  overflow="visible"/>
	</clipPath>
	<path clip-path="url(#SVGID_2_)" fill="#49001E" d="M102.759,68.011c0,28.014-22.71,50.724-50.724,50.724
		c-28.013,0-50.723-22.71-50.723-50.724s22.71-50.724,50.723-50.724C80.049,17.287,102.759,39.997,102.759,68.011"/>
	<path clip-path="url(#SVGID_2_)" fill="#DB0044" d="M72.97,111.077c5.454-7.773,8.654-17.244,8.654-27.459
		c0-21.669-14.395-39.976-34.147-45.877c0.229,1.007,0.542,1.986,0.931,2.925c-1.951,0.707-4.054,1.094-6.247,1.094
		c-6.451,0-12.121-3.338-15.377-8.382v-0.003v0.003c1.066,2.885,2.839,5.426,5.111,7.415c-2.127,0.867-4.454,1.343-6.891,1.343
		c-5.659,0-10.722-2.574-14.076-6.614c-0.339,1.387-0.517,2.834-0.517,4.322c0,0.621,0.031,1.234,0.094,1.839
		c-5.517-3.147-9.236-9.083-9.236-15.89c0-1.566,0.196-3.085,0.566-4.536c0.198-0.781,0.702-1.452,1.409-1.839
		c1.495-0.816,3.067-1.507,4.704-2.058c0.647-0.218,1.352-0.196,1.988,0.057c3.372,1.338,7.05,2.073,10.899,2.073
		c4.078,0,7.967-0.825,11.501-2.322c0.509-0.216,1.071-0.278,1.615-0.177c1.748,0.323,3.55,0.492,5.392,0.492
		c7.129,0,13.672-2.521,18.78-6.723c0.966,1.05,1.808,2.213,2.505,3.469c-1.017,2.208-2.299,4.271-3.808,6.143
		c24.196,2.399,43.093,22.812,43.093,47.638C99.913,86.945,88.922,103.311,72.97,111.077"/>
	<path clip-path="url(#SVGID_2_)" d="M10.571,41.722c-0.023-0.013-0.045-0.025-0.068-0.039c0.002,0.023,0.005,0.049,0.007,0.072
		C10.53,41.742,10.551,41.729,10.571,41.722"/>
	<path clip-path="url(#SVGID_2_)" fill="#C0061E" d="M99.745,63.991C95.38,45.832,80.667,31.702,62.193,28.189
		c-0.748-0.142-1.504-0.267-2.264-0.374c-2.201-0.31-4.449-0.47-6.736-0.47c-3.337,0-6.595,0.34-9.74,0.992
		c-0.155,0.03-0.31,0.063-0.462,0.099c-0.1,0.02-0.199,0.043-0.298,0.066c-0.57,0.124-1.135,0.262-1.694,0.409
		c-1.163,0.242-2.34,0.438-3.533,0.593c-2.028,0.262-4.093,0.397-6.192,0.397c-1.839,0-3.655-0.104-5.441-0.308
		c-0.317-0.033-0.635-0.074-0.951-0.117c-0.353-0.046-0.704-0.097-1.055-0.152c-2.883-0.448-5.681-1.158-8.369-2.097
		c-1.463-0.512-4.225-1.918-6.869-3.368c-3.518-1.929-7.697,1.008-7.107,4.977c0.626,4.21,2.87,9.108,9.021,12.847
		c-0.061-0.605-0.092-1.218-0.092-1.839c0-1.491,0.178-2.938,0.514-4.324c0.969,1.167,2.081,2.213,3.309,3.108
		c0.369,0.272,0.751,0.527,1.142,0.768c1.26,0.784,2.62,1.417,4.06,1.875c1.755,0.562,3.627,0.865,5.568,0.865
		c1.142,0,2.259-0.104,3.343-0.305c1.231-0.227,2.416-0.578,3.545-1.038c-0.287-0.252-0.567-0.511-0.836-0.783
		c-1.173-1.163-2.188-2.483-3.01-3.928c-0.226-0.394-0.437-0.799-0.633-1.214c-0.231-0.485-0.44-0.984-0.628-1.493
		c0.29,0.45,0.597,0.888,0.926,1.308c0.353,0.455,0.724,0.893,1.119,1.31c1.035,1.102,2.207,2.076,3.49,2.894
		c0.519,0.334,1.058,0.642,1.612,0.921c2.473,1.249,5.269,1.952,8.229,1.952c1.654,0,3.256-0.219,4.78-0.634
		c1.64-0.44,3.19-1.106,4.612-1.961c1.411,0.565,2.79,1.196,4.133,1.888c15.404,7.956,25.938,24.032,25.938,42.565
		c0,10.216-3.2,19.686-8.651,27.459c15.949-7.768,26.94-24.132,26.94-43.067C99.913,66.657,99.857,65.316,99.745,63.991"/>
	<g opacity="0.7" clip-path="url(#SVGID_2_)">
		<g>
			<defs>
				<rect id="SVGID_3_" x="51.552" y="34.874" width="36.558" height="76.203"/>
			</defs>
			<clipPath id="SVGID_4_">
				<use xlink:href="#SVGID_3_"  overflow="visible"/>
			</clipPath>
			<path clip-path="url(#SVGID_4_)" d="M88.11,79.93c0,10.104-3.129,19.479-8.476,27.205c-2.101,1.487-4.329,2.808-6.664,3.942
				c5.453-7.773,8.654-17.243,8.654-27.459c0-20.148-12.447-37.389-30.072-44.453c1.883-1.127,3.543-2.585,4.904-4.291
				C74.913,41.52,88.11,59.183,88.11,79.93"/>
		</g>
	</g>
	<path clip-path="url(#SVGID_2_)" fill="#F66195" d="M56.82,23.172c23.741,2.354,42.378,22.051,43.07,46.243
		c0.014-0.467,0.023-0.935,0.023-1.405c0-24.189-17.941-44.186-41.241-47.415C58.099,21.487,57.483,22.349,56.82,23.172"/>
	<path clip-path="url(#SVGID_2_)" fill="#EF5E93" d="M10.439,41.644c0.022,0.013,0.043,0.026,0.066,0.039
		c-0.017-0.157-0.024-0.315-0.037-0.473C10.457,41.354,10.447,41.499,10.439,41.644"/>
	<path clip-path="url(#SVGID_2_)" fill="#F66195" d="M1.835,24.057c0.199-0.781,0.703-1.453,1.41-1.839
		c1.494-0.816,3.066-1.507,4.703-2.058c0.648-0.218,1.352-0.196,1.988,0.057c3.372,1.338,7.05,2.072,10.899,2.072
		c4.078,0,7.967-0.824,11.501-2.321c0.51-0.216,1.071-0.278,1.615-0.177c1.748,0.323,3.55,0.492,5.392,0.492
		c7.13,0,13.672-2.521,18.78-6.724c0.636,0.692,1.212,1.436,1.734,2.219c0.271-0.508,0.53-1.024,0.771-1.549
		c-0.696-1.256-1.539-2.419-2.505-3.469c-5.108,4.202-11.65,6.723-18.78,6.723c-1.842,0-3.644-0.169-5.392-0.492
		c-0.544-0.101-1.105-0.039-1.615,0.177c-3.534,1.497-7.423,2.322-11.501,2.322c-3.849,0-7.527-0.735-10.899-2.073
		c-0.636-0.253-1.34-0.275-1.988-0.057c-1.637,0.551-3.209,1.242-4.703,2.058c-0.707,0.387-1.211,1.058-1.41,1.839
		c-0.37,1.451-0.566,2.97-0.566,4.536c0,0.472,0.02,0.938,0.055,1.401C1.405,26.12,1.577,25.072,1.835,24.057"/>
	<path clip-path="url(#SVGID_2_)" fill="#FFC940" d="M88.752,49.335c-0.059-0.625-0.148-1.239-0.268-1.844
		c-0.237-1.192-1.219-2.094-2.423-2.262c-4.382-0.608-8.264-2.771-11.074-5.914c-5.604-2.302-11.744-3.571-18.18-3.571
		c-23.962,0-43.909,17.59-47.325,40.584c-1.381,9.3,2.589,18.957,4.924,21.284c1.811,1.806,7.112,9.497,19.055,14.539l0.003,0.002
		c-4.042-5.059-6.459-11.474-6.459-18.451c0-14.108,9.876-25.909,23.091-28.87c2.811,3.427,6.841,5.816,11.43,6.498
		c0.404,1.424,1.081,2.732,1.969,3.866c3.41-0.046,6.454-1.604,8.495-4.033c0.039-0.039,0.062-0.065,0.059-0.065h-0.002
		c0,0,0,0,0.001-0.001c-0.001,0.001-0.002,0.001-0.003,0.001c-3.834-0.027-6.935-3.145-6.935-6.985c0-1.251,0.414-2.617,0.906-3.441
		c1.785-2.989,6.756-6.677,9.141-7.898c0.514-0.262,1.239-0.456,1.931-0.456c2.355,0,4.271,1.885,4.317,4.23v-0.009
		c2.613-1.173,4.899-2.94,6.69-5.129C88.571,50.827,88.822,50.085,88.752,49.335"/>
	<path clip-path="url(#SVGID_2_)" fill="#FEEC8F" d="M9.482,79.382c3.416-22.994,23.363-40.584,47.325-40.584
		c6.436,0,12.576,1.269,18.18,3.571c2.81,3.143,6.692,5.306,11.074,5.914c1.204,0.167,2.186,1.07,2.423,2.263
		c0.012,0.059,0.019,0.121,0.031,0.181c0.194-0.435,0.282-0.912,0.237-1.392c-0.059-0.625-0.148-1.24-0.268-1.844
		c-0.237-1.192-1.219-2.095-2.423-2.262c-4.382-0.609-8.264-2.771-11.074-5.914c-5.604-2.302-11.744-3.572-18.18-3.572
		c-23.962,0-43.909,17.591-47.325,40.584c-0.273,1.843-0.334,3.698-0.243,5.508C9.283,81.018,9.361,80.198,9.482,79.382"/>
	<path clip-path="url(#SVGID_2_)" fill="#FDAD36" d="M84.375,49.444c-5.436-2.274-11.403-3.531-17.665-3.531
		c-20.704,0-38.196,13.741-43.862,32.6c-0.261-1.577-0.4-3.195-0.4-4.846c0-1.704,0.145-3.375,0.422-4.998
		c-3.678,6.593-5.774,14.191-5.774,22.277c0,3.869,0.481,7.626,1.383,11.213c1.508,1.481,3.115,2.861,4.807,4.134
		c0,0.002,0.001,0.003,0.001,0.005c0.088,0.065,0.181,0.123,0.254,0.206c0.197,0.225,0.45,0.382,0.717,0.515
		c0.084,0.042,0.155,0.099,0.229,0.152c0.369,0.26,0.743,0.514,1.12,0.764c0.087,0.058,0.175,0.114,0.262,0.171
		c0.29,0.19,0.581,0.376,0.875,0.559c0.113,0.071,0.226,0.141,0.34,0.211c0.297,0.181,0.596,0.36,0.897,0.535
		c0.089,0.052,0.178,0.105,0.267,0.156c0.388,0.223,0.778,0.44,1.173,0.652c0.074,0.04,0.149,0.078,0.224,0.117
		c0.32,0.17,0.642,0.337,0.967,0.5c0.128,0.064,0.256,0.127,0.385,0.19c0.288,0.141,0.577,0.279,0.868,0.414
		c0.124,0.058,0.248,0.116,0.372,0.173c0.407,0.185,0.815,0.366,1.227,0.54c-4.042-5.06-6.458-11.475-6.458-18.452
		c0-0.289,0.006-0.577,0.014-0.865c0.002-0.089,0.006-0.179,0.009-0.267c0.008-0.211,0.018-0.421,0.031-0.63
		c0.005-0.088,0.009-0.176,0.015-0.263c0.018-0.265,0.039-0.529,0.064-0.793c0.01-0.105,0.022-0.209,0.033-0.314
		c0.019-0.179,0.039-0.358,0.061-0.538c1.54-12.448,10.814-22.498,22.864-25.198c2.811,3.426,6.841,5.815,11.429,6.497
		c0.405,1.424,1.081,2.731,1.969,3.866c3.439-0.047,6.506-1.63,8.548-4.093c0.001-0.001,0.006-0.005,0.006-0.005h-0.002
		c0.001,0,0.001-0.001,0.001-0.001c-0.001,0-0.001,0.001-0.002,0.001c-3.397-0.025-6.218-2.474-6.816-5.703
		c-0.079-0.414-0.12-0.845-0.12-1.282c0-1.252,0.415-2.617,0.906-3.441c1.786-2.989,6.756-6.678,9.142-7.898
		c0.514-0.263,1.238-0.456,1.93-0.456c2.353,0,4.266,1.88,4.317,4.22c1.28-0.574,2.481-1.291,3.584-2.131
		C86.757,53.061,86.425,50.302,84.375,49.444"/>
	<path clip-path="url(#SVGID_2_)" fill="#FD8E2C" d="M27.006,93.702c0,6.977,2.417,13.392,6.458,18.452
		c-1.945-0.822-3.823-1.765-5.626-2.824c-2.592-4.983-4.057-10.643-4.057-16.646c0-15.353,9.579-28.471,23.089-33.698
		c0.712,2.154,1.813,4.131,3.222,5.848C36.878,67.794,27.006,79.595,27.006,93.702"/>
</g>
<g>
	<defs>
		<path id="SVGID_5_" d="M50.096,64.832c2.811,3.426,6.842,5.816,11.43,6.498c0.405,1.424,1.081,2.732,1.969,3.866
			c3.41-0.046,6.454-1.604,8.495-4.033c0.039-0.039,0.062-0.065,0.059-0.065h-0.002c0.001,0,0.001,0,0.001-0.001
			c-0.001,0.001-0.002,0.001-0.003,0.001c-3.834-0.027-6.935-3.145-6.935-6.985c0-1.251,0.415-2.617,0.906-3.442
			c1.785-2.988,6.755-6.677,9.141-7.897c0.515-0.262,1.239-0.455,1.931-0.455c2.356,0,4.271,1.884,4.317,4.229v-0.009
			c2.613-1.173,4.9-2.94,6.69-5.13c0.477-0.583,0.727-1.324,0.657-2.074c-0.059-0.625-0.148-1.239-0.268-1.844
			c-0.236-1.192-1.219-2.094-2.423-2.262c-4.381-0.608-8.263-2.771-11.074-5.915c-5.603-2.301-11.744-3.571-18.18-3.571
			C32.845,35.743,36.881,67.793,50.096,64.832"/>
	</defs>
	<clipPath id="SVGID_6_">
		<use xlink:href="#SVGID_5_"  overflow="visible"/>
	</clipPath>
	<defs>
		<filter id="Adobe_OpacityMaskFilter" filterUnits="userSpaceOnUse" x="27.731" y="28.487" width="66.205" height="53.965">
			<feColorMatrix  type="matrix" values="1 0 0 0 0  0 1 0 0 0  0 0 1 0 0  0 0 0 1 0"/>
		</filter>
	</defs>
	<mask maskUnits="userSpaceOnUse" x="27.731" y="28.487" width="66.205" height="53.965" id="SVGID_7_">
		<g filter="url(#Adobe_OpacityMaskFilter)">
			
				<linearGradient id="SVGID_8_" gradientUnits="userSpaceOnUse" x1="0" y1="118.7367" x2="1" y2="118.7367" gradientTransform="matrix(-44.1217 -5.8187 -5.8187 44.1217 786.8273 -5178.7617)">
				<stop  offset="0" style="stop-color:#FFFFFF"/>
				<stop  offset="4.006410e-04" style="stop-color:#FFFFFF"/>
				<stop  offset="1" style="stop-color:#000000"/>
			</linearGradient>
			<polygon clip-path="url(#SVGID_6_)" fill="url(#SVGID_8_)" points="87.865,82.452 27.731,74.522 33.802,28.487 93.936,36.417 			
				"/>
		</g>
	</mask>
	
		<linearGradient id="SVGID_9_" gradientUnits="userSpaceOnUse" x1="0" y1="118.7367" x2="1" y2="118.7367" gradientTransform="matrix(-44.1217 -5.8187 -5.8187 44.1217 786.8273 -5178.7622)">
		<stop  offset="0" style="stop-color:#FEEC8F"/>
		<stop  offset="4.006410e-04" style="stop-color:#FEEC8F"/>
		<stop  offset="1" style="stop-color:#FEEC8F"/>
	</linearGradient>
	<polygon clip-path="url(#SVGID_6_)" mask="url(#SVGID_7_)" fill="url(#SVGID_9_)" points="87.865,82.452 27.731,74.522 
		33.802,28.487 93.936,36.417 	"/>
</g>
<g>
	<defs>
		<rect id="SVGID_10_" y="0" width="102.759" height="118.734"/>
	</defs>
	<clipPath id="SVGID_11_">
		<use xlink:href="#SVGID_10_"  overflow="visible"/>
	</clipPath>
	<path clip-path="url(#SVGID_11_)" fill="#FDAD36" d="M42.416,50.179c0.375,0.598-0.939,1.251-2.564,2.26
		c-1.636,0.988-2.816,1.862-3.178,1.256c-0.363-0.579,0.228-2.413,1.864-3.402C40.163,49.285,42.065,49.592,42.416,50.179"/>
	<path clip-path="url(#SVGID_11_)" fill="#FDAD36" d="M30.681,49.455c0.46,0.532-0.734,1.374-2.179,2.611
		c-1.459,1.22-2.487,2.258-2.935,1.717c-0.445-0.514-0.141-2.408,1.318-3.628C28.33,48.917,30.248,48.931,30.681,49.455"/>
	<path clip-path="url(#SVGID_11_)" fill="#FDAD36" d="M24.91,59.969c0.431,0.313-0.305,1.141-1.159,2.305
		c-0.867,1.153-1.446,2.097-1.871,1.774c-0.417-0.303-0.52-1.754,0.347-2.907C23.08,59.978,24.499,59.657,24.91,59.969"/>
	<path clip-path="url(#SVGID_11_)" fill="#FDAD36" d="M16.163,67.955c0.496,0.196-0.012,1.181-0.549,2.52
		c-0.554,1.333-0.881,2.391-1.372,2.184c-0.48-0.19-0.94-1.57-0.387-2.902C14.393,68.418,15.688,67.755,16.163,67.955"/>
	<path clip-path="url(#SVGID_11_)" fill="#FDAD36" d="M16.774,79.096c0.447,0.052,0.247,0.965,0.1,2.174
		c-0.162,1.207-0.198,2.141-0.643,2.08c-0.433-0.051-1.108-1.076-0.947-2.283C15.431,79.859,16.343,79.036,16.774,79.096"/>
	
		<path clip-path="url(#SVGID_11_)" fill="none" stroke="#49001E" stroke-width="2.544" stroke-linejoin="bevel" stroke-miterlimit="10" d="
		M56.82,20.372C81.016,22.77,99.913,43.184,99.913,68.01c0,26.441-21.436,47.877-47.878,47.877
		c-26.441,0-47.874-21.436-47.874-47.877c0-11.073,3.76-21.269,10.071-29.379"/>
	<path clip-path="url(#SVGID_11_)" fill="#49001E" d="M52.057,34.699l2.982-0.144c0.994-0.052,1.988-0.104,2.984-0.067
		c1.99,0.051,3.976,0.221,5.946,0.503c3.939,0.574,7.813,1.62,11.502,3.147l0.479,0.35c1.456,1.691,3.361,3.05,5.431,4.014
		c2.074,0.964,4.336,1.538,6.602,1.624l1.158,0.863c0.589,1.786,0.882,3.577,0.955,5.423l-0.236,0.781
		c-2.013,2.826-4.787,5.102-7.959,6.517l-1.79-1.136c-0.023-1.042-0.604-2.058-1.522-2.571c-0.9-0.53-2.062-0.551-3.004-0.027
		c-2.376,1.331-4.74,3.16-6.698,5.123c-0.481,0.499-0.95,1.011-1.335,1.541c-0.411,0.556-0.675,0.985-0.864,1.585
		c-0.414,1.189-0.421,2.406-0.075,3.575c0.696,2.328,3.005,4.053,5.443,4.027l1.004,2.047c-0.651,0.789-1.271,1.351-1.992,1.919
		c-0.708,0.553-1.478,1.03-2.291,1.429c-0.811,0.403-1.673,0.72-2.565,0.922c-0.887,0.231-1.807,0.298-2.719,0.325l-1-0.489
		c-0.984-1.257-1.729-2.705-2.173-4.242l-0.017-0.06l1.036,0.91c-1.802-0.109-3.583-0.598-5.228-1.358
		c-1.653-0.751-3.159-1.798-4.472-3.027c-1.297-1.246-2.403-2.676-3.218-4.246c-0.82-1.562-1.372-3.25-1.548-4.963
		c1.737,2.955,3.861,5.415,6.407,7.263c1.256,0.936,2.617,1.7,4.026,2.332c1.415,0.626,2.886,1.095,4.407,1.483l1.037,0.911
		l0.014,0.048c0.353,1.223,0.945,2.376,1.732,3.382l-0.999-0.488c0.716-0.028,1.435-0.071,2.129-0.256
		c0.7-0.157,1.38-0.406,2.029-0.73c0.651-0.319,1.277-0.703,1.854-1.156c0.565-0.433,1.147-0.991,1.535-1.46l1.004,2.047
		c-1.74-0.017-3.49-0.573-4.883-1.627c-1.414-1.025-2.453-2.53-2.983-4.193c-0.253-0.84-0.364-1.706-0.364-2.585
		c0.022-0.897,0.189-1.731,0.458-2.548c0.138-0.409,0.303-0.812,0.527-1.225c0.238-0.396,0.452-0.741,0.705-1.065
		c0.485-0.664,1.017-1.243,1.559-1.805c1.094-1.111,2.253-2.108,3.465-3.036c1.221-0.927,2.448-1.793,3.867-2.56
		c1.647-0.914,3.816-0.907,5.466,0.077c1.672,0.938,2.758,2.806,2.789,4.721l-1.791-1.136c2.756-1.23,5.174-3.212,6.927-5.673
		l-0.236,0.781c-0.059-1.583-0.331-3.215-0.821-4.69l1.157,0.862c-2.634-0.101-5.213-0.76-7.581-1.859
		c-2.364-1.105-4.546-2.644-6.294-4.671l0.479,0.349c-3.481-1.442-7.153-2.434-10.891-2.978c-1.869-0.268-3.754-0.429-5.642-0.478
		c-0.945-0.035-1.888,0.016-2.831,0.066l-2.83,0.134L52.057,34.699z"/>
	
		<path clip-path="url(#SVGID_11_)" fill="none" stroke="#49001E" stroke-width="2.544" stroke-linejoin="bevel" stroke-miterlimit="10" d="
		M71.975,54.791c6.057,8.02,9.648,18.004,9.648,28.827c0,10.215-3.2,19.686-8.653,27.459"/>
	
		<path clip-path="url(#SVGID_11_)" fill="none" stroke="#49001E" stroke-width="2.544" stroke-linejoin="bevel" stroke-miterlimit="10" d="
		M33.459,112.148c-4.04-5.057-6.454-11.469-6.454-18.446c0-14.116,9.824-25.877,23.092-28.861"/>
	<path clip-path="url(#SVGID_11_)" fill="#49001E" d="M86.761,15.248c-2.432-2.849-5.22-5.381-8.309-7.469
		c-3.115-2.039-6.493-3.689-10.07-4.702c-3.568-1.034-7.279-1.535-10.992-1.561c-3.713-0.049-7.435,0.351-10.997,1.315
		c-3.568,0.943-6.954,2.482-10.042,4.487c-3.094,2.004-5.872,4.475-8.462,7.152c-2.607,2.669-4.995,5.572-7.702,8.327
		c-1.364,1.366-2.814,2.711-4.551,3.799c-1.713,1.092-3.813,1.862-5.982,1.87H9.628c-0.702,0.003-1.274-0.565-1.277-1.267
		c-0.002-0.703,0.565-1.274,1.268-1.277c0.01,0,0.025,0,0.035,0c3.293,0.079,6.286-2.234,8.891-4.783
		c2.638-2.583,5.113-5.476,7.834-8.162c2.708-2.696,5.655-5.229,8.945-7.273c3.283-2.048,6.888-3.605,10.643-4.523
		c3.751-0.939,7.622-1.282,11.451-1.156c3.835,0.109,7.664,0.709,11.328,1.858C72.419,3.01,75.87,4.787,79.021,6.95
		c3.126,2.211,5.917,4.86,8.326,7.81c0.134,0.163,0.109,0.404-0.054,0.537C87.133,15.428,86.895,15.405,86.761,15.248"/>
	<path clip-path="url(#SVGID_11_)" fill="#49001E" d="M65.529,40.568c0,0,6.127,0.675,8.604,2.367c0,0-1.178,1.299-3.028,0.79
		C68.77,43.082,68.489,41.736,65.529,40.568"/>
	
		<path clip-path="url(#SVGID_11_)" fill="none" stroke="#49001E" stroke-width="2.544" stroke-linejoin="round" stroke-miterlimit="10" d="
		M48.354,36.486C28.284,40.054,12.486,56.1,9.482,76.327c-1.381,9.301,2.589,18.957,4.924,21.284"/>
	<path clip-path="url(#SVGID_11_)" fill="#49001E" d="M28.736,22.51c0,0,3.222-0.913,4.494-2.138c0,0,2.963,1.064,4.661,0.64
		C37.89,21.012,33.674,23.789,28.736,22.51"/>
	<path clip-path="url(#SVGID_11_)" fill="#49001E" d="M35.314,41.799c-3.777-1.857-6.774-4.905-8.529-8.421l-0.001-0.002
		l0.001-0.001c1.446,2.699,3.539,4.918,5.939,6.458l0.007,0.004l1.848,1.229l-2.208,0.905c-3.825,1.568-8.131,1.845-12.132,0.85
		c-2.005-0.492-3.923-1.323-5.667-2.422c-1.743-1.104-3.299-2.488-4.622-4.062l2.211-0.507c-0.234,0.937-0.383,1.875-0.442,2.834
		c-0.026,0.477-0.052,0.968-0.022,1.45l0.071,1.447l0.12,2.431L9.86,42.781c-1.91-1.141-3.679-2.553-5.137-4.255
		c-1.463-1.693-2.651-3.637-3.441-5.739c-0.817-2.092-1.22-4.332-1.271-6.564c-0.045-1.127,0.054-2.246,0.208-3.341
		c0.166-1.102,0.378-2.176,0.794-3.32l0.142-0.389l0.352-0.225c1.162-0.741,2.314-1.289,3.499-1.807
		c1.184-0.509,2.386-0.962,3.641-1.334l0.444-0.132l0.426,0.187c3.627,1.588,7.592,2.39,11.554,2.352
		c1.972-0.019,3.957-0.256,5.897-0.681c1.937-0.425,3.844-1.031,5.605-1.859l0.397-0.186l0.429,0.095
		c2.001,0.445,4.096,0.643,6.175,0.623c2.077-0.029,4.157-0.246,6.178-0.729c4.051-0.924,7.875-2.79,11.14-5.359l0.038-0.029
		l0.563-0.428l0.636,0.22c0.869,0.3,1.696,0.812,2.331,1.486c0.323,0.332,0.598,0.702,0.832,1.092
		c0.235,0.399,0.422,0.784,0.577,1.279l0.029,0.103l0.134,0.473l-0.211,0.369c-2.366,4.157-5.666,7.651-9.484,10.187
		c3.287-3.198,5.742-7.098,7.172-11.246l-0.076,0.843c0.003,0.012,0.002,0.01-0.002-0.002c-0.061-0.2-0.186-0.476-0.323-0.701
		c-0.139-0.234-0.301-0.451-0.486-0.639c-0.363-0.385-0.809-0.656-1.31-0.835l1.199-0.208l-0.042,0.031
		c-3.555,2.8-7.725,4.834-12.144,5.842c-2.204,0.525-4.47,0.764-6.731,0.794c-2.261,0.02-4.518-0.188-6.757-0.685l0.826-0.091
		c-1.987,0.932-4.051,1.582-6.153,2.046c-2.102,0.459-4.248,0.718-6.416,0.738c-4.314,0.042-8.64-0.832-12.597-2.564l0.869,0.054
		c-1.127,0.334-2.254,0.757-3.351,1.229c-1.091,0.473-2.185,1.005-3.118,1.602l0.494-0.613c-0.589,1.702-0.886,3.806-0.837,5.704
		c0.045,1.953,0.394,3.897,1.104,5.71c0.684,1.822,1.714,3.506,2.988,4.982c1.268,1.482,2.818,2.717,4.498,3.724l-1.908,1.219
		l-0.083-1.651c-0.03-0.551-0.003-1.096,0.027-1.65c0.068-1.106,0.245-2.219,0.513-3.288l0.605-2.416l1.606,1.909
		c1.159,1.377,2.514,2.583,4.03,3.542c1.516,0.955,3.179,1.676,4.919,2.103c3.479,0.865,7.242,0.625,10.56-0.738l-0.359,2.134
		l-0.006-0.006c-2.159-2.455-3.613-5.378-4.264-8.367l0.001-0.001l0.001,0.002c2.472,3.061,5.864,5.172,9.418,6.039L35.314,41.799z"
		/>
	<path clip-path="url(#SVGID_11_)" fill="#FFC940" d="M47.222,40.714c0.166-1.155,0.443-2.311,0.842-3.454
		c0.645-1.844,1.553-3.518,2.67-4.998c0.943,3.496,2.911,6.675,5.683,9.079"/>
	<path clip-path="url(#SVGID_11_)" fill="#49001E" d="M47.222,40.714c0.017-3.111,0.845-6.327,2.498-9.218l2.242,0.435
		c0.464,3.366,1.99,6.716,4.455,9.41c-3.018-2.048-5.497-5.112-6.91-8.747l2.242,0.435C49.682,35.059,48.078,37.72,47.222,40.714"/>
</g>
<rect fill="none" width="102.759" height="118.734"/>
</svg>
